<svg xmlns="http://www.w3.org/2000/svg" xmlns:xlink="http://www.w3.org/1999/xlink" viewBox="0 0 128 186"><defs><style>.cls-1{fill:#fff;}.cls-2{opacity:0.35;fill:url(#radial-gradient);}.cls-3{opacity:0.14;}.cls-4{fill:#4f4f4f;}.cls-5{clip-path:url(#clip-path);}.cls-6{fill:#3d3d3d;}.cls-7{clip-path:url(#clip-path-2);}.cls-8{fill:#7a7a7a;}.cls-9{fill:#9e9e9e;}.cls-10{clip-path:url(#clip-path-3);}.cls-11{fill:#5b5b5b;}.cls-12{fill:#707070;}.cls-13{font-size:14px;fill:#4d4d4d;font-family:AvenirNext-Medium, Avenir Next;}</style><radialGradient id="radial-gradient" cx="64" cy="93" r="79.83" gradientUnits="userSpaceOnUse"><stop offset="0" stop-color="#f2f2f2"/><stop offset="1" stop-color="#ccc"/></radialGradient><clipPath id="clip-path"><path class="cls-1" d="M81.1,149.16,21.28,140c-5.74-7.43,0-12.16,0-12.16l59.82,7.43,32.55-27s-3.38,7.66,0,12.39Z"/></clipPath><clipPath id="clip-path-2"><path class="cls-1" d="M109.14,115.6l-59.7,18.92L17.23,123s-7-6.76-.23-14.19L49.22,121l59.92-17.79S106.1,110.19,109.14,115.6Z"/></clipPath><clipPath id="clip-path-3"><path class="cls-1" d="M109.17,96l-46.29,16-39.88-9s-4.39-7.27.85-12.84L62.2,98.73l47.14-16S105.62,87.58,109.17,96Z"/></clipPath></defs><title>Asset 4</title><g id="Layer_2" data-name="Layer 2"><g id="Layer_2-2" data-name="Layer 2"><rect class="cls-2" width="128" height="186"/></g><g id="Layer_1-2" data-name="Layer 1"><g class="cls-3"><path d="M12.16,137.34c0-13,24.89-16.45,55.87-16.45s52.72,4.28,52.72,17.12c0,11.49-22.08,18.82-53.06,18.82S12.16,150.37,12.16,137.34Z"/></g><path class="cls-4" d="M57.19,104c-3,.67-36.46,22.17-36.46,22.17l59.35,8.27,33.46-27.82S60.15,103.29,57.19,104Z"/><path class="cls-1" d="M81.1,149.16,21.28,140c-5.74-7.43,0-12.16,0-12.16l59.82,7.43,32.55-27s-3.38,7.66,0,12.39Z"/><g class="cls-5"><polyline class="cls-6" points="19.59 131.93 80.42 140.04 113.54 112.16 112.19 108.61 41.73 117.06 19.76 130.75"/><path class="cls-6" d="M81,149.32c-3.09-6-.13-11.89,0-12.14l.6.31c0,.06-2.93,5.84,0,11.52Z"/></g><path class="cls-4" d="M81.62,151l-61.26-9.34-.41-.54c-6.67-8.63.19-14.44.26-14.5l.56-.46,59.81,7.43,32-26.56a1.69,1.69,0,0,1,2.16,2.6l-33.12,27.5-59.72-7.43c-1,1.16-2.89,4.24.34,8.83l58.34,8.9,32-28a1.69,1.69,0,1,1,2.22,2.54Z"/><path class="cls-1" d="M109.14,115.6l-59.7,18.92L17.23,123s-7-6.76-.23-14.19L49.22,121l59.92-17.79S106.1,110.19,109.14,115.6Z"/><g class="cls-7"><polygon class="cls-8" points="13.83 112.33 47.95 125.68 109.44 106.7 109.44 101.52 18 109 13.83 112.33"/><path class="cls-8" d="M49.13,135c-3.4-9.08-.32-13.64-.19-13.83l.56.39s-3,4.49.26,13.2Z"/></g><path class="cls-9" d="M49.41,136.64l-33.09-11.8-.27-.26c-.08-.08-8.07-8-.3-16.54l.78-.85,32.75,12.37,59.38-17.63a1.69,1.69,0,0,1,1,3.23l-60.48,18L17.53,111.18a7.56,7.56,0,0,0-1.39,7.23,10.77,10.77,0,0,0,2,3.51l31.3,11.16,59.15-18.76a1.7,1.7,0,0,1,1,3.23Z"/><polygon class="cls-9" points="16.53 107.2 68.26 96.11 109.32 101.88 49.45 120.44 16.53 107.2"/><path class="cls-1" d="M109.17,96l-46.29,16-39.88-9s-4.39-7.27.85-12.84L62.2,98.73l47.14-16S105.62,87.58,109.17,96Z"/><g class="cls-10"><polyline class="cls-11" points="22.16 93.16 61.52 101.94 110.02 85.39 107.82 83.44 98.02 83.7 27.39 85.89"/><path class="cls-11" d="M62.55,112.18C59.68,103,62,98,62.06,97.75l.62.28s-2.27,5.08.52,14Z"/></g><path class="cls-12" d="M63,113.84l-41-9.22-.37-.62c-1.75-2.89-3.78-9.72,1.05-14.87l.66-.7L62.1,97l46.7-15.9a1.69,1.69,0,0,1,1.09,3.2L62.3,100.49,24.48,92.16c-2.72,3.63-1.11,7.92-.35,9.49l38.65,8.68,45.84-15.9a1.69,1.69,0,0,1,1.11,3.2Z"/><path class="cls-12" d="M23.26,88.44s41.36-12,41.48-12.06S109.49,81,109.49,81L62.14,97.78Z"/><text class="cls-13" transform="translate(13.9 40.02)">No book image <tspan x="21.28" y="16.8">available</tspan></text></g></g></svg>