<svg xmlns="http://www.w3.org/2000/svg" xmlns:xlink="http://www.w3.org/1999/xlink" viewBox="0 0 339.33 251.41"><defs><style>.cls-1{fill:#fff;}.cls-2{opacity:0.14;}.cls-3{fill:#febd34;}.cls-4{clip-path:url(#clip-path);}.cls-5{fill:#f0e1b3;}.cls-12,.cls-6,.cls-7,.cls-9{fill:none;stroke-miterlimit:10;}.cls-6{stroke:#f0e1b3;stroke-width:2.11px;}.cls-7{stroke:#febd34;}.cls-12,.cls-7,.cls-9{stroke-linecap:round;stroke-width:10.56px;}.cls-8{clip-path:url(#clip-path-2);}.cls-9{stroke:#334c5e;}.cls-10{fill:#334c5e;}.cls-11{clip-path:url(#clip-path-3);}.cls-12{stroke:#f4563c;}.cls-13{fill:#f4563c;}</style><clipPath id="clip-path"><path id="_Clipping_Path_" data-name="&lt;Clipping Path&gt;" class="cls-1" d="M215.43,227.47,28.51,199c-18-23.23,0-38,0-38l186.92,23.24L317.16,99.7s-10.56,23.93,0,38.72Z"/></clipPath><clipPath id="clip-path-2"><path id="_Clipping_Path_2" data-name="&lt;Clipping Path&gt;" class="cls-1" d="M303.08,122.58,116.51,181.71,15.84,145.81s-21.82-21.12-.7-44.35l100.67,38L303.08,83.86S293.57,105.68,303.08,122.58Z"/></clipPath><clipPath id="clip-path-3"><path id="_Clipping_Path_3" data-name="&lt;Clipping Path&gt;" class="cls-1" d="M303.16,61.43,158.49,111.59l-124.61-28S20.15,60.9,36.52,43.48l119.86,26.4L303.69,19.72S292.08,35,303.16,61.43Z"/></clipPath></defs><title>BookStack</title><g id="Layer_2" data-name="Layer 2"><g id="Objects"><path class="cls-2" d="M0,190.51c0-40.74,77.78-51.39,174.59-51.39s164.74,13.38,164.74,53.51c0,35.9-69,58.78-165.79,58.78S0,231.25,0,190.51Z"/><path class="cls-3" d="M140.71,86.23c-9.24,2.11-113.92,69.3-113.92,69.3l185.47,25.83L316.81,94.42S150,84.12,140.71,86.23Z"/><path id="_Clipping_Path_4" data-name="&lt;Clipping Path&gt;" class="cls-1" d="M215.43,227.47,28.51,199c-18-23.23,0-38,0-38l186.92,23.24L317.16,99.7s-10.56,23.93,0,38.72Z"/><g class="cls-4"><polyline class="cls-5" points="23.23 173.62 213.31 198.96 316.81 111.84 312.58 100.75 92.4 127.15 23.76 169.92"/><path class="cls-6" d="M216,190.51s-9.51,18.48,0,37"/></g><path class="cls-7" d="M317.16,99.7,215.43,184.18,28.51,160.94s-18,14.79,0,38l186.92,28.51,101.73-89.05"/><path id="_Clipping_Path_5" data-name="&lt;Clipping Path&gt;" class="cls-1" d="M303.08,122.58,116.51,181.71,15.84,145.81s-21.82-21.12-.7-44.35l100.67,38L303.08,83.86S293.57,105.68,303.08,122.58Z"/><g class="cls-8"><polygon class="cls-5" points="5.21 112.37 111.84 154.08 304 94.77 304 78.58 5.21 112.37"/><path class="cls-6" d="M115.81,140.53s-9.86,14.08.7,42.24"/></g><path class="cls-9" d="M303.08,123.63,116.51,182.77,15.84,146.86s-21.82-21.12-.7-44.35l100.67,38L303.08,84.91"/><polygon class="cls-10" points="13.66 96.32 175.3 61.68 303.63 79.69 116.51 137.71 13.66 96.32"/><path id="_Clipping_Path_6" data-name="&lt;Clipping Path&gt;" class="cls-1" d="M303.16,61.43,158.49,111.59l-124.61-28S20.15,60.9,36.52,43.48l119.86,26.4L303.69,19.72S292.08,35,303.16,61.43Z"/><g class="cls-11"><polyline class="cls-5" points="31.24 52.45 154.27 79.91 305.81 28.17 298.94 22.09 268.32 22.89 47.61 29.75"/><path class="cls-6" d="M156.91,67.24s-7.4,15.84,1.58,44.35"/></g><path class="cls-12" d="M303.69,19.72,156.38,69.88,36.52,43.48C20.15,60.9,33.88,83.61,33.88,83.61l124.61,28L303.16,61.43"/><path class="cls-13" d="M34.69,37.72S164,.36,164.3,0,304.15,14.53,304.15,14.53L156.2,66.89Z"/></g></g></svg>